<svg width="800" height="800" viewBox="0 0 800 800" fill="none" xmlns="http://www.w3.org/2000/svg">
<rect width="800" height="800" rx="4" fill="#4B5563"/>
<path fill-rule="evenodd" clip-rule="evenodd" d="M400 392C406.365 392 412.47 389.471 416.971 384.971C421.471 380.47 424 374.365 424 368C424 361.635 421.471 355.53 416.971 351.029C412.47 346.529 406.365 344 400 344C393.635 344 387.53 346.529 383.029 351.029C378.529 355.53 376 361.635 376 368C376 374.365 378.529 380.47 383.029 384.971C387.53 389.471 393.635 392 400 392V392ZM344 464C344 456.646 345.448 449.364 348.263 442.57C351.077 435.776 355.202 429.602 360.402 424.402C365.602 419.202 371.775 415.077 378.57 412.263C385.364 409.449 392.646 408 400 408C407.354 408 414.636 409.449 421.43 412.263C428.225 415.077 434.398 419.202 439.598 424.402C444.798 429.602 448.923 435.776 451.737 442.57C454.552 449.364 456 456.646 456 464H344Z" fill="#6B7280"/>
</svg>
