<svg width="800" height="800" viewBox="0 0 800 800" fill="none" xmlns="http://www.w3.org/2000/svg">
<rect width="800" height="800" rx="4" fill="#4B5563"/>
<path d="M457.42 413.283C457.465 412.855 457.6 412.45 457.6 412.023C457.6 404.08 451.142 397.623 443.2 397.623C440.365 397.623 437.755 398.478 435.527 399.873C431.567 391.143 422.815 385.023 412.6 385.023C398.695 385.023 387.4 396.295 387.4 410.223C387.4 410.898 387.557 411.528 387.602 412.18C376.442 413.013 367.6 422.238 367.6 433.623C367.6 445.548 377.275 455.222 389.2 455.222H450.4C462.325 455.222 472 445.548 472 433.623C472 424.15 465.88 416.208 457.42 413.283V413.283ZM360.58 408.198C350.747 398.365 350.747 382.39 360.58 372.58C370.412 362.748 386.388 362.748 396.22 372.58C398.403 374.763 400.022 377.283 401.237 379.938C403.442 379.105 405.76 378.588 408.145 378.25L414.85 358.248C415.75 355.57 413.207 353.05 410.53 353.928L390.775 360.52L381.437 341.89C380.2 339.37 376.6 339.37 375.34 341.89L366.025 360.52L346.247 353.928C343.592 353.05 341.05 355.593 341.927 358.248L348.52 378.003L329.89 387.34C327.37 388.6 327.37 392.178 329.89 393.438L348.52 402.753L341.927 422.508C341.027 425.185 343.57 427.705 346.247 426.828L363.37 421.135C364.742 418.345 366.52 415.803 368.68 413.598C365.732 412.383 362.965 410.583 360.58 408.198V408.198ZM359.5 390.378C359.5 399.558 366.092 407.208 374.777 408.895C376.577 407.838 378.445 406.915 380.447 406.263C381.662 396.295 387.422 387.7 395.612 382.638C392.642 376.09 386.05 371.5 378.4 371.5C367.982 371.5 359.5 379.96 359.5 390.378V390.378Z" fill="#6B7280"/>
</svg>
