<svg width="800" height="800" viewBox="0 0 800 800" fill="none" xmlns="http://www.w3.org/2000/svg">
<rect width="800" height="800" rx="4" fill="#374151"/>
<path fill-rule="evenodd" clip-rule="evenodd" d="M435.728 374.699C442.49 374.699 447.972 369.17 447.972 362.349C447.972 355.529 442.49 350 435.728 350C428.966 350 423.484 355.529 423.484 362.349C423.484 369.17 428.966 374.699 435.728 374.699ZM401.84 449.481H323.72C322.935 449.481 322.456 448.618 322.871 447.952L377.41 360.384C377.796 359.765 378.685 359.743 379.086 360.351C383.293 366.72 402.278 395.489 418.118 419.866L435.099 392.44C435.476 391.832 436.35 391.805 436.765 392.387L476.23 447.899C476.699 448.557 476.237 449.47 475.429 449.478L437.22 449.854L401.84 449.481Z" fill="#6B7280"/>
</svg>
