<svg width="800" height="800" viewBox="0 0 800 800" fill="none" xmlns="http://www.w3.org/2000/svg">
<rect width="800" height="800" rx="4" fill="#374151"/>
<path d="M349.625 345.75C343.207 345.75 338 350.957 338 357.375V442.625C338 449.043 343.207 454.25 349.625 454.25H450.375C456.793 454.25 462 449.043 462 442.625V357.375C462 350.957 456.793 345.75 450.375 345.75H349.625ZM349.625 353.5H375.297C376.096 353.5 376.75 354.154 376.75 354.953V359.797C376.75 360.596 376.096 361.25 375.297 361.25H347.203C346.404 361.25 345.75 360.596 345.75 359.797V357.375C345.75 355.244 347.494 353.5 349.625 353.5ZM452.797 376.75H347.203C346.404 376.75 345.75 376.096 345.75 375.297V366.578C345.75 365.779 346.404 365.125 347.203 365.125H380.625L387.939 354.154C388.205 353.742 388.666 353.5 389.15 353.5H450.375C452.506 353.5 454.25 355.244 454.25 357.375V375.297C454.25 376.096 453.596 376.75 452.797 376.75ZM400 440.688C383.967 440.688 370.938 427.658 370.938 411.625C370.938 395.592 383.967 382.562 400 382.562C416.033 382.562 429.062 395.592 429.062 411.625C429.062 427.658 416.033 440.688 400 440.688ZM400 390.312C388.254 390.312 378.688 399.879 378.688 411.625C378.688 423.371 388.254 432.938 400 432.938C411.746 432.938 421.312 423.371 421.312 411.625C421.312 399.879 411.746 390.312 400 390.312ZM388.375 415.5C386.244 415.5 384.5 413.756 384.5 411.625C384.5 403.076 391.451 396.125 400 396.125C402.131 396.125 403.875 397.869 403.875 400C403.875 402.131 402.131 403.875 400 403.875C395.737 403.875 392.25 407.362 392.25 411.625C392.25 413.756 390.506 415.5 388.375 415.5Z" fill="#6B7280"/>
</svg>
