<svg width="32" height="32" viewBox="0 0 32 32" fill="none" xmlns="http://www.w3.org/2000/svg">
<path d="M24.5189 12.9429C24.4448 13.4533 24.1082 14.1468 23.7221 14.7497C23.2349 15.5105 22.4617 16.0433 21.5769 16.2283L17.6792 17.0434C17.0528 17.1744 16.4847 17.5022 16.0582 17.979L13.5025 20.8357C13.0222 21.3725 12.6865 21.2445 12.6865 20.5244C12.6807 20.5511 11.4182 23.8072 14.7641 25.7371C16.0497 26.4787 17.9004 26.2122 19.186 25.4707L25.9978 21.5416C28.5453 20.0721 30.344 17.5863 30.9419 14.7089C30.9655 14.595 30.9838 14.4808 31.0035 14.3667L24.5189 12.9429Z" fill="url(#paint0_linear_472_3183)"/>
<path d="M22.7528 9.01774C24.0384 9.75928 24.5637 10.8633 24.5637 12.3464C24.5637 12.5477 24.5479 12.7466 24.5194 12.9425L27.2641 14.1215L31.004 14.3663C31.4829 11.5948 30.5444 8.74202 28.862 6.47445C27.5959 4.768 25.9667 3.28713 24.0081 2.15738C22.417 1.23966 20.7636 0.635005 19.1025 0.303223L17.2361 2.72023L16.6465 5.49559L22.7528 9.01774Z" fill="url(#paint1_linear_472_3183)"/>
<path d="M0.783353 11.0518C0.782654 11.054 0.784588 11.0546 0.785316 11.0524C0.929339 10.6205 1.10993 10.1385 1.33539 9.62369C2.5131 6.9343 4.78262 5.14062 7.57467 4.22608C10.3667 3.31156 13.4153 3.63212 15.9599 5.09988L16.6463 5.49578L19.1023 0.303412C11.2907 -1.25676 3.30703 3.33253 0.793284 11.0217C0.792083 11.0254 0.787713 11.0382 0.783353 11.0518Z" fill="url(#paint2_linear_472_3183)"/>
<path d="M18.9201 25.4704C17.6345 26.212 16.0506 26.212 14.765 25.4704C14.5904 25.3697 14.4259 25.2566 14.2703 25.134L12.0093 26.6885L10.0605 29.8376C12.2236 31.6377 15.0324 32.2164 17.8392 31.8945C19.9515 31.6523 22.0498 30.9832 24.0084 29.8534C25.5995 28.9357 26.9503 27.8075 28.0685 26.5361L26.9065 23.7128L25.0265 21.9482L18.9201 25.4704Z" fill="url(#paint3_linear_472_3183)"/>
<path d="M14.2703 25.1341C13.2798 24.3539 12.6874 23.1572 12.6874 21.8754V21.7476V11.0724C12.6874 10.4687 12.8653 10.3661 13.3886 10.668C12.5826 10.203 10.7205 8.60701 8.42142 9.93314C7.13582 10.6747 6.07715 12.3116 6.07715 13.7946V21.6529C6.07715 24.5917 7.59931 27.6573 9.79472 29.6133C9.88156 29.6906 9.97147 29.7636 10.0606 29.8377L14.2703 25.1341Z" fill="url(#paint4_linear_472_3183)"/>
<path d="M27.9106 5.3123C27.9091 5.3106 27.9076 5.31197 27.9091 5.31368C28.2116 5.65428 28.539 6.0515 28.8726 6.50399C30.615 8.86764 31.2661 11.8613 30.6628 14.7343C30.0595 17.6072 28.2574 20.0846 25.7127 21.5523L25.0264 21.9482L28.0684 26.5361C33.3266 20.5576 33.3402 11.3554 27.9318 5.33594C27.9292 5.33306 27.9202 5.32287 27.9106 5.3123Z" fill="url(#paint5_linear_472_3183)"/>
<path d="M6.34355 13.7948C6.34354 12.3117 7.13551 10.9413 8.42113 10.1998C8.59565 10.0991 8.77601 10.0133 8.96002 9.94L8.74304 7.20651L7.21861 4.0791C4.57671 5.05054 2.4397 7.05814 1.31528 9.64757C0.469097 11.5962 9.792e-06 13.7462 0 16.0057C0 17.8412 0.302549 19.574 0.845532 21.1772L3.87391 21.5835L6.34355 20.8392V13.7948V13.7948Z" fill="url(#paint6_linear_472_3183)"/>
<path d="M8.96016 9.94C10.1317 9.47312 11.4653 9.55888 12.5764 10.1998L12.6872 10.2637L21.5826 15.3946C22.2066 15.7545 22.1499 16.1087 21.4446 16.2561L21.9578 16.1488C22.633 16.0077 23.2499 15.6626 23.7217 15.1597C24.5328 14.2951 24.8306 13.252 24.8306 12.3467C24.8306 10.8637 24.0386 9.49323 22.753 8.75169L15.9411 4.82258C13.3936 3.35316 10.3395 3.03983 7.54622 3.96132C7.43572 3.99776 7.32756 4.03909 7.21875 4.0791L8.96016 9.94Z" fill="url(#paint7_linear_472_3183)"/>
<path d="M19.3224 31.6528C19.3246 31.6523 19.3242 31.6503 19.3219 31.6508C18.8755 31.7422 18.3674 31.8269 17.8084 31.8892C14.8882 32.215 11.9677 31.2814 9.77888 29.323C7.59011 27.3646 6.34372 24.5667 6.34372 21.6312L6.34371 20.8394L0.845703 21.1774C3.39905 28.7161 11.3691 33.3289 19.2913 31.6593C19.2951 31.6585 19.3084 31.6558 19.3224 31.6528Z" fill="url(#paint8_linear_472_3183)"/>
<defs>
<linearGradient id="paint0_linear_472_3183" x1="20.0595" y1="23.7701" x2="23.207" y2="12.807" gradientUnits="userSpaceOnUse">
<stop stop-color="#322D87"/>
<stop offset="1" stop-color="#322D87"/>
</linearGradient>
<linearGradient id="paint1_linear_472_3183" x1="27.3093" y1="10.4001" x2="19.0297" y2="2.14962" gradientUnits="userSpaceOnUse">
<stop stop-color="#312C86"/>
<stop offset="1" stop-color="#5652A3"/>
</linearGradient>
<linearGradient id="paint2_linear_472_3183" x1="16.1642" y1="5.02115" x2="3.67407" y2="5.8104" gradientUnits="userSpaceOnUse">
<stop stop-color="#5450A1"/>
<stop offset="1" stop-color="#5551A2"/>
</linearGradient>
<linearGradient id="paint3_linear_472_3183" x1="15.32" y1="28.6626" x2="26.5369" y2="25.6358" gradientUnits="userSpaceOnUse">
<stop stop-color="#48449B"/>
<stop offset="1" stop-color="#5753A4"/>
</linearGradient>
<linearGradient id="paint4_linear_472_3183" x1="7.26906" y1="15.6827" x2="15.2327" y2="23.9347" gradientUnits="userSpaceOnUse">
<stop stop-color="#201C6B"/>
<stop offset="1" stop-color="#49459C"/>
</linearGradient>
<linearGradient id="paint5_linear_472_3183" x1="25.4506" y1="21.6356" x2="31.0071" y2="10.4344" gradientUnits="userSpaceOnUse">
<stop stop-color="#5753A4"/>
<stop offset="1" stop-color="#332E88"/>
</linearGradient>
<linearGradient id="paint6_linear_472_3183" x1="5.36387" y1="9.13116" x2="2.39054" y2="20.3067" gradientUnits="userSpaceOnUse">
<stop stop-color="#47439B"/>
<stop offset="1" stop-color="#504BA2"/>
</linearGradient>
<linearGradient id="paint7_linear_472_3183" x1="20.5432" y1="8.59961" x2="9.6778" y2="11.3049" gradientUnits="userSpaceOnUse">
<stop stop-color="#1F1B6A"/>
<stop offset="1" stop-color="#47439B"/>
</linearGradient>
<linearGradient id="paint8_linear_472_3183" x1="6.40691" y1="21.3571" x2="13.3327" y2="31.775" gradientUnits="userSpaceOnUse">
<stop stop-color="#504CA2"/>
<stop offset="1" stop-color="#5A56A5"/>
</linearGradient>
</defs>
</svg>
