<?xml version="1.0" standalone="no"?>
<!DOCTYPE svg PUBLIC "-//W3C//DTD SVG 20010904//EN"
 "http://www.w3.org/TR/2001/REC-SVG-20010904/DTD/svg10.dtd">
<svg version="1.0" xmlns="http://www.w3.org/2000/svg"
 width="1120.000000pt" height="1120.000000pt" viewBox="0 0 1120.000000 1120.000000"
 preserveAspectRatio="xMidYMid meet">
<metadata>
Created by potrace 1.14, written by Peter Selinger 2001-2017
</metadata>
<g transform="translate(0.000000,1120.000000) scale(0.100000,-0.100000)"
fill="#000000" stroke="none">
<path d="M5137 10404 c-3 -3 -47 -8 -99 -10 -117 -5 -193 -11 -238 -18 -19 -3
-62 -8 -95 -11 -33 -4 -80 -11 -105 -16 -25 -6 -58 -12 -75 -14 -39 -5 -202
-40 -215 -46 -3 -1 -9 -3 -15 -4 -15 -2 -128 -35 -145 -42 -8 -3 -18 -6 -22
-5 -4 1 -24 -6 -45 -14 -21 -9 -39 -16 -40 -15 -3 1 -29 -7 -65 -21 -15 -6
-28 -9 -30 -7 -2 2 -16 -4 -33 -13 -16 -9 -59 -28 -95 -41 -86 -33 -250 -107
-260 -117 -3 -3 -32 -18 -65 -34 -127 -62 -414 -244 -525 -332 -259 -206 -472
-414 -630 -614 -28 -36 -59 -74 -68 -85 -31 -37 -233 -336 -246 -365 -3 -8
-22 -42 -41 -75 -111 -190 -209 -420 -310 -725 -26 -81 -83 -319 -91 -385 -1
-11 -3 -22 -5 -25 -3 -6 -4 -11 -14 -75 -4 -27 -9 -59 -11 -70 -2 -11 -7 -47
-10 -80 -3 -33 -8 -76 -11 -95 -9 -51 -15 -6482 -6 -6477 5 3 57 8 118 12 60
4 116 8 125 10 8 1 46 6 84 10 38 3 101 13 140 20 38 7 74 11 78 9 4 -3 8 -1
8 3 0 5 8 9 18 9 64 3 484 116 527 142 6 4 15 7 20 8 34 5 322 127 338 143 6
6 17 11 24 11 7 0 34 12 60 26 26 14 77 42 113 62 36 19 67 39 68 44 2 4 7 6
12 3 4 -3 13 2 20 10 7 8 16 15 21 15 12 0 93 52 97 63 2 4 8 7 13 7 5 0 40
22 79 50 39 27 72 50 74 50 2 0 15 9 28 20 12 11 64 52 113 91 182 144 380
335 510 494 22 26 50 59 62 71 13 13 23 26 23 30 0 3 12 21 28 39 104 124 342
495 342 533 0 7 4 12 8 12 7 0 33 53 36 73 0 4 7 11 14 16 8 5 13 12 13 17 -2
27 13 42 44 46 19 2 35 2 35 -2 0 -7 189 -4 196 3 3 3 16 2 28 -3 13 -4 28 -5
34 -1 6 4 30 5 54 3 24 -2 50 -3 58 -2 8 0 24 0 35 0 11 -1 26 -1 33 -1 6 1
20 1 30 1 9 0 28 0 42 1 14 0 30 0 35 0 64 -4 205 -5 205 -1 0 3 19 4 43 2 23
-2 48 -3 55 -3 12 1 31 1 57 1 40 -1 72 -1 90 0 11 1 27 1 35 1 8 -1 40 -1 70
-1 53 1 64 1 93 0 55 -2 328 15 407 25 120 16 158 22 232 36 35 7 74 13 88 15
22 3 55 11 125 30 11 3 29 7 40 9 11 2 72 19 135 38 63 19 122 36 130 38 8 2
17 6 20 9 3 3 37 16 75 29 39 13 90 32 115 43 25 10 56 24 70 30 152 63 450
220 458 240 2 4 8 8 13 8 8 0 165 99 194 123 6 4 53 40 105 79 191 143 356
295 520 478 36 40 73 81 82 91 68 73 328 443 328 467 0 6 3 12 8 14 20 9 235
428 248 483 1 6 12 35 24 65 20 51 59 162 95 270 16 50 70 266 80 320 12 67
13 75 15 75 1 0 3 9 4 20 2 11 6 43 10 70 4 28 10 66 12 85 3 19 7 46 10 60 8
48 17 206 18 320 1 97 -1 114 -14 111 -13 -2 -45 -3 -142 0 -18 0 -108 0 -133
-1 -23 0 -28 0 -148 3 -48 1 -87 -2 -87 -6 0 -5 -4 -5 -10 -2 -13 8 -235 10
-248 1 -6 -3 -13 -2 -16 3 -3 5 -21 5 -41 1 -19 -4 -37 -4 -40 0 -3 4 -21 4
-40 0 -20 -4 -38 -4 -41 1 -3 5 -10 7 -15 3 -12 -7 -138 -9 -145 -2 -3 3 -21
2 -40 -2 -19 -4 -36 -4 -39 0 -2 4 -23 4 -45 0 -22 -4 -40 -5 -40 -1 0 3 -31
6 -70 6 -38 0 -70 -3 -70 -6 0 -4 -18 -3 -40 1 -22 4 -43 4 -45 -1 -3 -4 -18
-4 -34 1 -15 4 -34 4 -41 0 -6 -4 -26 -4 -44 -1 -31 7 -90 5 -113 -4 -7 -2
-15 0 -18 4 -3 5 -21 5 -40 1 -19 -4 -37 -4 -40 0 -3 4 -21 4 -40 0 -20 -4
-38 -4 -41 1 -3 5 -10 7 -15 4 -7 -5 -73 -7 -139 -4 -17 0 -104 0 -135 -1 -23
0 -28 0 -148 3 -48 1 -87 -2 -87 -6 0 -5 -4 -5 -10 -2 -13 8 -235 10 -248 1
-6 -3 -13 -2 -16 3 -3 5 -21 5 -41 1 -19 -4 -37 -4 -40 0 -3 4 -21 4 -40 0
-20 -4 -38 -4 -41 1 -3 5 -10 7 -15 3 -12 -7 -138 -9 -145 -2 -3 3 -21 2 -40
-2 -19 -4 -36 -4 -39 0 -2 4 -23 4 -45 0 -22 -4 -40 -5 -40 -1 0 3 -31 6 -70
6 -38 0 -70 -3 -70 -6 0 -4 -18 -3 -40 1 -22 4 -43 4 -45 -1 -3 -4 -18 -4 -34
1 -15 4 -34 4 -41 0 -7 -5 -18 -6 -24 -4 -22 8 -82 10 -114 3 -17 -4 -34 -3
-37 1 -3 4 -21 4 -40 0 -19 -4 -37 -4 -40 0 -3 4 -21 4 -40 0 -20 -4 -38 -4
-41 1 -3 5 -10 7 -15 4 -7 -5 -73 -7 -139 -4 -8 0 -39 -1 -68 -1 -29 -1 -56 1
-59 4 -3 3 -13 2 -22 -3 -9 -5 -25 -5 -36 -1 -11 4 -34 4 -52 -1 -18 -4 -35
-3 -38 1 -3 4 -20 4 -39 0 -19 -4 -40 -4 -47 1 -7 4 -17 5 -23 2 -13 -8 -186
-12 -187 -4 -1 3 -2 77 -3 163 l-1 158 55 0 c30 0 62 1 70 1 8 0 40 0 70 0 30
0 62 0 70 0 13 0 111 0 185 0 11 -1 45 0 75 0 52 1 63 0 93 -2 6 -1 46 -1 87
0 41 0 82 1 90 0 8 0 67 3 130 7 63 4 127 7 143 7 15 1 27 4 27 7 0 3 17 5 38
6 45 1 125 12 222 29 25 5 50 9 55 10 20 2 91 17 145 30 30 8 66 16 80 19 73
13 391 119 490 162 19 8 44 19 55 23 11 4 40 17 65 29 25 12 50 22 56 22 6 0
17 7 24 15 7 8 18 15 25 15 15 0 285 146 319 173 6 5 47 31 91 60 44 28 85 55
90 60 6 4 39 29 75 55 36 25 67 49 70 52 3 3 41 34 85 70 93 76 151 128 249
226 88 87 210 222 271 299 17 20 40 49 51 64 20 24 142 197 164 231 5 8 20 31
32 50 13 19 43 69 66 110 24 41 47 82 52 90 5 8 36 69 69 135 79 161 106 223
103 238 -1 4 3 7 8 7 6 0 10 6 10 14 0 12 23 74 55 151 7 17 16 46 20 65 4 19
10 40 13 45 4 6 7 16 8 23 2 8 6 21 10 30 4 9 8 22 10 27 1 6 9 37 18 70 9 33
19 72 21 87 3 15 9 37 14 50 5 13 9 25 9 28 1 19 18 119 22 123 1 1 3 11 4 22
8 61 19 133 23 150 2 11 6 43 8 70 3 28 7 70 10 95 3 25 7 108 10 185 4 149 1
161 -42 144 -12 -5 -23 -5 -23 -1 0 4 -13 7 -30 7 -16 0 -30 -3 -30 -7 0 -4
-13 -3 -30 2 -18 5 -30 5 -30 0 0 -6 -10 -6 -25 0 -15 6 -27 6 -30 0 -3 -6
-15 -6 -30 0 -15 6 -27 6 -30 0 -3 -6 -15 -6 -30 0 -15 6 -27 6 -30 0 -4 -6
-13 -7 -24 -1 -10 6 -23 6 -31 1 -8 -5 -21 -5 -30 0 -9 5 -22 5 -30 0 -7 -4
-20 -5 -29 -2 -20 8 -63 7 -84 -1 -9 -3 -18 -3 -21 1 -5 8 -106 5 -114 -3 -2
-2 -15 0 -28 5 -14 6 -26 6 -29 0 -4 -6 -13 -7 -24 -1 -10 6 -23 6 -31 1 -8
-5 -18 -6 -24 -3 -9 6 -105 8 -123 3 -9 -3 -12 -2 -47 4 -14 3 -26 1 -26 -4 0
-6 -9 -6 -23 -1 -13 5 -30 5 -39 0 -10 -6 -19 -6 -23 0 -3 7 -15 7 -30 1 -15
-6 -27 -6 -30 0 -4 7 -13 6 -25 0 -10 -6 -21 -7 -24 -2 -4 8 -106 6 -114 -3
-2 -2 -15 0 -28 5 -14 6 -26 6 -29 0 -4 -6 -13 -7 -24 -1 -10 6 -23 6 -31 1
-8 -5 -18 -6 -24 -3 -9 6 -105 8 -123 3 -9 -3 -12 -2 -47 4 -14 3 -26 1 -26
-4 0 -6 -9 -6 -23 -1 -13 5 -30 5 -39 0 -11 -6 -19 -5 -23 1 -4 6 -11 8 -16 5
-13 -9 -99 -11 -99 -3 0 4 -13 3 -30 -2 -16 -5 -30 -6 -30 -2 0 8 -53 8 -66
-1 -6 -3 -16 -2 -24 3 -8 5 -21 5 -30 0 -9 -5 -22 -5 -28 -1 -7 4 -35 4 -62 1
-28 -4 -50 -4 -50 -1 0 8 -114 6 -126 -2 -6 -3 -16 -2 -24 3 -8 5 -21 5 -30 0
-9 -5 -22 -5 -29 -1 -7 5 -30 5 -52 1 -22 -4 -42 -4 -45 1 -2 4 -16 4 -29 -1
-16 -6 -25 -6 -25 0 0 6 -9 6 -24 0 -13 -5 -26 -7 -28 -5 -8 8 -109 11 -114 3
-3 -4 -17 -3 -32 3 -29 11 -29 11 -54 -2 -9 -5 -19 -6 -22 -1 -4 8 -106 6
-114 -3 -2 -2 -15 0 -28 5 -14 6 -26 6 -29 0 -4 -6 -13 -7 -24 -1 -10 6 -23 6
-31 1 -9 -5 -20 -4 -29 3 -14 12 -18 12 -36 -3 -6 -5 -17 -5 -25 0 -8 5 -21 5
-30 0 -9 -5 -22 -5 -29 -1 -7 5 -30 5 -52 1 -21 -4 -39 -5 -39 -1 0 3 -25 6
-55 6 -30 0 -55 -2 -55 -5 0 -8 -48 -5 -56 3 -3 3 -17 2 -30 -3 -15 -6 -24 -6
-24 0 0 6 -9 6 -24 0 -13 -5 -26 -7 -28 -5 -8 8 -109 11 -114 3 -3 -4 -14 -4
-26 1 -12 4 -37 5 -55 1 -18 -5 -33 -4 -33 0 0 5 -13 5 -30 0 -16 -5 -30 -6
-30 -2 0 8 -53 8 -66 -1 -6 -3 -16 -2 -24 3 -8 5 -21 5 -30 0 -9 -5 -22 -5
-28 -1 -7 4 -35 4 -62 1 -28 -4 -50 -4 -50 -1 0 8 -200 5 -207 -3 -4 -3 -11
-1 -18 4 -7 5 -14 7 -18 4z"/>
</g>
</svg>
