<?xml version="1.0" standalone="no"?>
<!DOCTYPE svg PUBLIC "-//W3C//DTD SVG 20010904//EN"
 "http://www.w3.org/TR/2001/REC-SVG-20010904/DTD/svg10.dtd">
<svg version="1.0" xmlns="http://www.w3.org/2000/svg"
 width="528.000000pt" height="528.000000pt" viewBox="0 0 528.000000 528.000000"
 preserveAspectRatio="xMidYMid meet">
<metadata>
Created by potrace 1.14, written by Peter Selinger 2001-2017
</metadata>
<g transform="translate(0.000000,528.000000) scale(0.100000,-0.100000)"
fill="#000000" stroke="none">
<path d="M2659 5205 c-3 -2 -64 -6 -138 -9 -73 -3 -135 -7 -139 -10 -4 -2 -36
-7 -71 -10 -35 -4 -85 -11 -110 -16 -25 -6 -55 -12 -66 -13 -98 -17 -354 -93
-430 -127 -63 -28 -111 -48 -117 -49 -8 -1 -119 -59 -228 -119 -36 -20 -66
-40 -68 -44 -2 -4 -8 -8 -13 -8 -30 0 -341 -242 -433 -336 -90 -93 -197 -214
-228 -257 -12 -17 -27 -37 -33 -43 -6 -6 -28 -37 -50 -70 -22 -32 -43 -61 -46
-64 -3 -3 -9 -12 -12 -20 -4 -8 -16 -28 -26 -45 -57 -92 -105 -183 -166 -320
-31 -69 -121 -336 -130 -383 -3 -17 -12 -60 -20 -94 -7 -35 -16 -81 -20 -103
-3 -23 -7 -52 -10 -65 -26 -136 -27 -586 -1 -717 3 -11 8 -43 11 -70 4 -26 11
-64 15 -83 5 -19 11 -46 14 -60 13 -75 81 -297 111 -367 10 -21 20 -47 25 -58
4 -11 17 -42 30 -70 12 -27 22 -52 22 -55 0 -3 8 -16 17 -30 9 -14 23 -38 31
-55 27 -57 172 -288 191 -305 3 -3 18 -23 34 -45 16 -22 34 -44 39 -50 6 -5
34 -37 61 -70 76 -90 156 -169 300 -294 17 -14 59 -47 95 -73 36 -26 70 -52
77 -58 7 -5 15 -10 18 -10 3 0 26 -15 52 -34 27 -18 68 -45 93 -59 45 -27 276
-141 318 -158 63 -26 134 -53 142 -55 3 0 12 -3 20 -7 76 -30 323 -92 410
-102 19 -3 46 -7 60 -10 50 -10 132 -17 325 -27 24 -1 283 13 310 17 17 3 50
7 75 10 25 3 56 7 70 10 14 4 36 8 50 11 14 2 46 9 71 15 26 6 53 11 60 12 8
2 20 6 27 10 6 5 12 6 12 4 0 -7 170 45 255 78 102 39 209 88 285 130 25 14
50 25 57 25 7 0 13 3 13 8 0 4 21 18 48 32 26 13 49 27 52 30 3 3 25 18 50 34
209 133 433 337 598 543 41 51 141 192 167 235 79 132 115 200 115 215 0 7 3
13 8 13 4 0 16 21 26 48 11 26 27 65 37 87 20 43 78 200 84 226 2 9 12 47 23
85 21 72 46 187 58 264 3 25 8 53 10 64 25 133 25 662 0 704 -2 4 -7 32 -11
62 -11 87 -12 93 -24 135 -6 22 -12 49 -14 60 -26 138 -125 402 -215 575 -86
163 -208 351 -279 426 -17 19 -29 34 -27 34 20 0 -254 269 -346 340 -25 19
-47 38 -50 41 -14 16 -130 95 -222 153 -161 99 -360 194 -504 241 -27 9 -56
19 -64 22 -8 3 -19 7 -25 9 -5 1 -41 12 -80 22 -171 49 -365 80 -537 87 -54 2
-102 6 -106 9 -5 3 -11 4 -13 1z m-361 -1756 c59 -34 123 -70 142 -81 19 -11
76 -44 125 -73 50 -29 108 -62 130 -74 22 -12 57 -32 77 -44 45 -27 242 -141
314 -182 28 -16 89 -51 134 -77 46 -27 87 -48 91 -48 5 0 9 -4 9 -10 0 -5 5
-10 11 -10 6 0 56 -27 111 -60 54 -33 102 -60 106 -60 13 0 52 -53 52 -71 0
-18 -40 -51 -65 -55 -7 -1 -44 -9 -81 -17 -38 -9 -82 -18 -99 -21 -25 -5 -163
-34 -240 -51 -28 -6 -116 -24 -140 -28 -133 -23 -221 -65 -301 -143 -33 -32
-114 -120 -180 -194 -65 -74 -126 -141 -134 -150 -8 -9 -44 -49 -80 -89 -102
-115 -152 -127 -165 -38 -3 23 -5 399 -3 835 3 860 0 817 56 807 12 -2 71 -32
130 -66z"/>
</g>
</svg>
