<svg width="921" height="472" viewBox="0 0 921 472" fill="none" xmlns="http://www.w3.org/2000/svg">
<g clip-path="url(#clip0_17697_1351)">
<path d="M872.973 -74.8825L832.692 -134.843L772.072 -94.1396M872.973 -74.8825L812.353 -34.1793M872.973 -74.8825L913.254 -14.9222M812.353 -34.1793L772.072 -94.1396M812.353 -34.1793L852.634 25.781M812.353 -34.1793L751.733 6.52391M772.072 -94.1396L711.452 -53.4364M913.254 -14.9222L852.634 25.781M913.254 -14.9222L953.535 45.0381M852.634 25.781L892.915 85.7413M852.634 25.781L792.014 66.4842M953.535 45.0381L892.915 85.7413M953.535 45.0381L993.815 104.998M892.915 85.7413L933.196 145.702M892.915 85.7413L832.295 126.444M993.815 104.998L933.196 145.702M993.815 104.998L1034.1 164.959M933.196 145.702L973.476 205.662M933.196 145.702L872.576 186.405M1034.1 164.959L973.476 205.662M1034.1 164.959L1074.38 224.919M973.476 205.662L1013.76 265.622M973.476 205.662L912.857 246.365M1074.38 224.919L1013.76 265.622M1074.38 224.919L1114.66 284.879L1054.04 325.582M1013.76 265.622L1054.04 325.582M1013.76 265.622L953.137 306.325M1054.04 325.582L993.418 366.286M751.733 6.52391L711.452 -53.4364M751.733 6.52391L792.014 66.4842M751.733 6.52391L691.113 47.2271M711.452 -53.4364L650.832 -12.7332M792.014 66.4842L832.295 126.444M792.014 66.4842L731.394 107.187M832.295 126.444L872.576 186.405M832.295 126.444L771.675 167.148M872.576 186.405L912.857 246.365M872.576 186.405L811.956 227.108M912.857 246.365L953.137 306.325M912.857 246.365L852.237 287.068M953.137 306.325L993.418 366.286M953.137 306.325L892.517 347.029M993.418 366.286L932.798 406.989M691.113 47.2271L650.832 -12.7332M691.113 47.2271L731.394 107.187M691.113 47.2271L630.493 87.9303M650.832 -12.7332L590.212 27.97M731.394 107.187L771.675 167.148M731.394 107.187L670.774 147.891M771.675 167.148L811.956 227.108M771.675 167.148L711.055 207.851M811.956 227.108L852.237 287.068M811.956 227.108L751.336 267.811M852.237 287.068L892.517 347.029M852.237 287.068L791.617 327.771M892.517 347.029L932.798 406.989M892.517 347.029L831.898 387.732M932.798 406.989L872.178 447.692M630.493 87.9303L590.212 27.97M630.493 87.9303L670.774 147.891M630.493 87.9303L569.873 128.634M590.212 27.97L529.592 68.6732M670.774 147.891L711.055 207.851M670.774 147.891L610.154 188.594M711.055 207.851L751.336 267.811M711.055 207.851L650.435 248.554M751.336 267.811L791.617 327.771M751.336 267.811L690.716 308.514M791.617 327.771L831.898 387.732M791.617 327.771L730.997 368.475M831.898 387.732L872.178 447.692M831.898 387.732L771.278 428.435M872.178 447.692L811.559 488.395M569.873 128.634L529.592 68.6732M569.873 128.634L610.154 188.594M569.873 128.634L509.253 169.337M529.592 68.6732L468.972 109.376M610.154 188.594L650.435 248.554M610.154 188.594L549.534 229.297M650.435 248.554L690.716 308.514M650.435 248.554L589.815 289.257M690.716 308.514L730.997 368.475M690.716 308.514L630.096 349.218M730.997 368.475L771.278 428.435M730.997 368.475L670.377 409.178M771.278 428.435L811.559 488.395M771.278 428.435L710.658 469.138M811.559 488.395L750.939 529.098M509.253 169.337L468.972 109.376M509.253 169.337L549.534 229.297M509.253 169.337L448.633 210.04M468.972 109.376L408.352 150.08L448.633 210.04M549.534 229.297L589.815 289.257M549.534 229.297L488.914 270M589.815 289.257L630.096 349.218M589.815 289.257L529.195 329.96M630.096 349.218L670.377 409.178M630.096 349.218L569.476 389.921M670.377 409.178L710.658 469.138M670.377 409.178L609.757 449.881M710.658 469.138L750.939 529.098M710.658 469.138L650.038 509.841M750.939 529.098L690.319 569.802L650.038 509.841M448.633 210.04L488.914 270M488.914 270L529.195 329.96M529.195 329.96L569.476 389.921M569.476 389.921L609.757 449.881M609.757 449.881L650.038 509.841" stroke="#18181B"/>
<path d="M872.973 -74.8825L832.692 -134.843L772.072 -94.1396M872.973 -74.8825L812.353 -34.1793M872.973 -74.8825L913.254 -14.9222M812.353 -34.1793L772.072 -94.1396M812.353 -34.1793L852.634 25.781M812.353 -34.1793L751.733 6.52391M772.072 -94.1396L711.452 -53.4364M913.254 -14.9222L852.634 25.781M913.254 -14.9222L953.535 45.0381M852.634 25.781L892.915 85.7413M852.634 25.781L792.014 66.4842M953.535 45.0381L892.915 85.7413M953.535 45.0381L993.815 104.998M892.915 85.7413L933.196 145.702M892.915 85.7413L832.295 126.444M993.815 104.998L933.196 145.702M993.815 104.998L1034.1 164.959M933.196 145.702L973.476 205.662M933.196 145.702L872.576 186.405M1034.1 164.959L973.476 205.662M1034.1 164.959L1074.38 224.919M973.476 205.662L1013.76 265.622M973.476 205.662L912.857 246.365M1074.38 224.919L1013.76 265.622M1074.38 224.919L1114.66 284.879L1054.04 325.582M1013.76 265.622L1054.04 325.582M1013.76 265.622L953.137 306.325M1054.04 325.582L993.418 366.286M751.733 6.52391L711.452 -53.4364M751.733 6.52391L792.014 66.4842M751.733 6.52391L691.113 47.2271M711.452 -53.4364L650.832 -12.7332M792.014 66.4842L832.295 126.444M792.014 66.4842L731.394 107.187M832.295 126.444L872.576 186.405M832.295 126.444L771.675 167.148M872.576 186.405L912.857 246.365M872.576 186.405L811.956 227.108M912.857 246.365L953.137 306.325M912.857 246.365L852.237 287.068M953.137 306.325L993.418 366.286M953.137 306.325L892.517 347.029M993.418 366.286L932.798 406.989M691.113 47.2271L650.832 -12.7332M691.113 47.2271L731.394 107.187M691.113 47.2271L630.493 87.9303M650.832 -12.7332L590.212 27.97M731.394 107.187L771.675 167.148M731.394 107.187L670.774 147.891M771.675 167.148L811.956 227.108M771.675 167.148L711.055 207.851M811.956 227.108L852.237 287.068M811.956 227.108L751.336 267.811M852.237 287.068L892.517 347.029M852.237 287.068L791.617 327.771M892.517 347.029L932.798 406.989M892.517 347.029L831.898 387.732M932.798 406.989L872.178 447.692M630.493 87.9303L590.212 27.97M630.493 87.9303L670.774 147.891M630.493 87.9303L569.873 128.634M590.212 27.97L529.592 68.6732M670.774 147.891L711.055 207.851M670.774 147.891L610.154 188.594M711.055 207.851L751.336 267.811M711.055 207.851L650.435 248.554M751.336 267.811L791.617 327.771M751.336 267.811L690.716 308.514M791.617 327.771L831.898 387.732M791.617 327.771L730.997 368.475M831.898 387.732L872.178 447.692M831.898 387.732L771.278 428.435M872.178 447.692L811.559 488.395M569.873 128.634L529.592 68.6732M569.873 128.634L610.154 188.594M569.873 128.634L509.253 169.337M529.592 68.6732L468.972 109.376M610.154 188.594L650.435 248.554M610.154 188.594L549.534 229.297M650.435 248.554L690.716 308.514M650.435 248.554L589.815 289.257M690.716 308.514L730.997 368.475M690.716 308.514L630.096 349.218M730.997 368.475L771.278 428.435M730.997 368.475L670.377 409.178M771.278 428.435L811.559 488.395M771.278 428.435L710.658 469.138M811.559 488.395L750.939 529.098M509.253 169.337L468.972 109.376M509.253 169.337L549.534 229.297M509.253 169.337L448.633 210.04M468.972 109.376L408.352 150.08L448.633 210.04M549.534 229.297L589.815 289.257M549.534 229.297L488.914 270M589.815 289.257L630.096 349.218M589.815 289.257L529.195 329.96M630.096 349.218L670.377 409.178M630.096 349.218L569.476 389.921M670.377 409.178L710.658 469.138M670.377 409.178L609.757 449.881M710.658 469.138L750.939 529.098M710.658 469.138L650.038 509.841M750.939 529.098L690.319 569.802L650.038 509.841M448.633 210.04L488.914 270M488.914 270L529.195 329.96M529.195 329.96L569.476 389.921M569.476 389.921L609.757 449.881M609.757 449.881L650.038 509.841" stroke="url(#paint0_linear_17697_1351)" stroke-opacity="0.7"/>
</g>
<defs>
<linearGradient id="paint0_linear_17697_1351" x1="528.011" y1="314.332" x2="882.381" y2="54.4028" gradientUnits="userSpaceOnUse">
<stop offset="0.377045" stop-color="#09090B"/>
<stop offset="1" stop-color="#18181B"/>
</linearGradient>
<clipPath id="clip0_17697_1351">
<rect width="921" height="472" fill="white"/>
</clipPath>
</defs>
</svg>
