<svg width="785" height="758" viewBox="0 0 785 758" fill="none" xmlns="http://www.w3.org/2000/svg">
<g clip-path="url(#clip0_17685_779)">
<path d="M856.653 -140.965L790.524 -239.427L691.005 -172.588M856.653 -140.965L757.134 -74.1261M856.653 -140.965L922.782 -42.5038M757.134 -74.1261L691.005 -172.588M757.134 -74.1261L823.263 24.3354M757.134 -74.1261L657.615 -7.28687M691.005 -172.588L591.486 -105.748M922.782 -42.5038L823.263 24.3354M922.782 -42.5038L988.911 55.9577M823.263 24.3354L889.392 122.797M823.263 24.3354L723.744 91.1746M988.911 55.9577L889.392 122.797M988.911 55.9577L1055.04 154.419M889.392 122.797L955.52 221.258M889.392 122.797L789.872 189.636M1055.04 154.419L955.52 221.258M1055.04 154.419L1121.17 252.881M955.52 221.258L1021.65 319.72M955.52 221.258L856.001 288.098M1121.17 252.881L1021.65 319.72M1121.17 252.881L1187.3 351.342M1021.65 319.72L1087.78 418.181M1021.65 319.72L922.13 386.559M1187.3 351.342L1087.78 418.181M1187.3 351.342L1253.43 449.804L1153.91 516.643M1087.78 418.181L1153.91 516.643M1087.78 418.181L988.259 485.021M1153.91 516.643L1054.39 583.482M657.615 -7.28687L591.486 -105.748M657.615 -7.28687L723.744 91.1746M657.615 -7.28687L558.096 59.5523M591.486 -105.748L491.967 -38.9092M723.744 91.1746L789.872 189.636M723.744 91.1746L624.224 158.014M789.872 189.636L856.001 288.098M789.872 189.636L690.353 256.475M856.001 288.098L922.13 386.559M856.001 288.098L756.482 354.937M922.13 386.559L988.259 485.021M922.13 386.559L822.611 453.398M988.259 485.021L1054.39 583.482M988.259 485.021L888.74 551.86M1054.39 583.482L954.868 650.321M558.096 59.5523L491.967 -38.9092M558.096 59.5523L624.224 158.014M558.096 59.5523L458.576 126.392M491.967 -38.9092L392.448 27.93M624.224 158.014L690.353 256.475M624.224 158.014L524.705 224.853M690.353 256.475L756.482 354.937M690.353 256.475L590.834 323.315M756.482 354.937L822.611 453.398M756.482 354.937L656.963 421.776M822.611 453.398L888.74 551.86M822.611 453.398L723.092 520.237M888.74 551.86L954.868 650.321M888.74 551.86L789.22 618.699M954.868 650.321L855.349 717.16M458.576 126.392L392.448 27.93M458.576 126.392L524.705 224.853M458.576 126.392L359.057 193.231M392.448 27.93L292.928 94.7692M524.705 224.853L590.834 323.315M524.705 224.853L425.186 291.692M590.834 323.315L656.963 421.776M590.834 323.315L491.315 390.154M656.963 421.776L723.092 520.237M656.963 421.776L557.443 488.615M723.092 520.237L789.22 618.699M723.092 520.237L623.572 587.077M789.22 618.699L855.349 717.16M789.22 618.699L689.701 685.538M855.349 717.16L755.83 784M359.057 193.231L292.928 94.7692M359.057 193.231L425.186 291.692M359.057 193.231L259.538 260.07M292.928 94.7692L193.409 161.608M425.186 291.692L491.315 390.154M425.186 291.692L325.667 358.531M491.315 390.154L557.443 488.615M491.315 390.154L391.795 456.993M557.443 488.615L623.572 587.077M557.443 488.615L457.924 555.454M623.572 587.077L689.701 685.538M623.572 587.077L524.053 653.916M689.701 685.538L755.83 784M689.701 685.538L590.182 752.377M755.83 784L656.311 850.839M259.538 260.07L193.409 161.608M259.538 260.07L325.667 358.531M259.538 260.07L160.019 326.909M193.409 161.608L93.8898 228.448L160.019 326.909M325.667 358.531L391.795 456.993M325.667 358.531L226.147 425.371M391.795 456.993L457.924 555.454M391.795 456.993L292.276 523.832M457.924 555.454L524.053 653.916M457.924 555.454L358.405 622.294M524.053 653.916L590.182 752.377M524.053 653.916L424.534 720.755M590.182 752.377L656.311 850.839M590.182 752.377L490.663 819.217M656.311 850.839L556.791 917.678L490.663 819.217M160.019 326.909L226.147 425.371M226.147 425.371L292.276 523.832M292.276 523.832L358.405 622.294M358.405 622.294L424.534 720.755M424.534 720.755L490.663 819.217" stroke="#101828"/>
<path d="M856.653 -140.965L790.524 -239.427L691.005 -172.588M856.653 -140.965L757.134 -74.1261M856.653 -140.965L922.782 -42.5038M757.134 -74.1261L691.005 -172.588M757.134 -74.1261L823.263 24.3354M757.134 -74.1261L657.615 -7.28687M691.005 -172.588L591.486 -105.748M922.782 -42.5038L823.263 24.3354M922.782 -42.5038L988.911 55.9577M823.263 24.3354L889.392 122.797M823.263 24.3354L723.744 91.1746M988.911 55.9577L889.392 122.797M988.911 55.9577L1055.04 154.419M889.392 122.797L955.52 221.258M889.392 122.797L789.872 189.636M1055.04 154.419L955.52 221.258M1055.04 154.419L1121.17 252.881M955.52 221.258L1021.65 319.72M955.52 221.258L856.001 288.098M1121.17 252.881L1021.65 319.72M1121.17 252.881L1187.3 351.342M1021.65 319.72L1087.78 418.181M1021.65 319.72L922.13 386.559M1187.3 351.342L1087.78 418.181M1187.3 351.342L1253.43 449.804L1153.91 516.643M1087.78 418.181L1153.91 516.643M1087.78 418.181L988.259 485.021M1153.91 516.643L1054.39 583.482M657.615 -7.28687L591.486 -105.748M657.615 -7.28687L723.744 91.1746M657.615 -7.28687L558.096 59.5523M591.486 -105.748L491.967 -38.9092M723.744 91.1746L789.872 189.636M723.744 91.1746L624.224 158.014M789.872 189.636L856.001 288.098M789.872 189.636L690.353 256.475M856.001 288.098L922.13 386.559M856.001 288.098L756.482 354.937M922.13 386.559L988.259 485.021M922.13 386.559L822.611 453.398M988.259 485.021L1054.39 583.482M988.259 485.021L888.74 551.86M1054.39 583.482L954.868 650.321M558.096 59.5523L491.967 -38.9092M558.096 59.5523L624.224 158.014M558.096 59.5523L458.576 126.392M491.967 -38.9092L392.448 27.93M624.224 158.014L690.353 256.475M624.224 158.014L524.705 224.853M690.353 256.475L756.482 354.937M690.353 256.475L590.834 323.315M756.482 354.937L822.611 453.398M756.482 354.937L656.963 421.776M822.611 453.398L888.74 551.86M822.611 453.398L723.092 520.237M888.74 551.86L954.868 650.321M888.74 551.86L789.22 618.699M954.868 650.321L855.349 717.16M458.576 126.392L392.448 27.93M458.576 126.392L524.705 224.853M458.576 126.392L359.057 193.231M392.448 27.93L292.928 94.7692M524.705 224.853L590.834 323.315M524.705 224.853L425.186 291.692M590.834 323.315L656.963 421.776M590.834 323.315L491.315 390.154M656.963 421.776L723.092 520.237M656.963 421.776L557.443 488.615M723.092 520.237L789.22 618.699M723.092 520.237L623.572 587.077M789.22 618.699L855.349 717.16M789.22 618.699L689.701 685.538M855.349 717.16L755.83 784M359.057 193.231L292.928 94.7692M359.057 193.231L425.186 291.692M359.057 193.231L259.538 260.07M292.928 94.7692L193.409 161.608M425.186 291.692L491.315 390.154M425.186 291.692L325.667 358.531M491.315 390.154L557.443 488.615M491.315 390.154L391.795 456.993M557.443 488.615L623.572 587.077M557.443 488.615L457.924 555.454M623.572 587.077L689.701 685.538M623.572 587.077L524.053 653.916M689.701 685.538L755.83 784M689.701 685.538L590.182 752.377M755.83 784L656.311 850.839M259.538 260.07L193.409 161.608M259.538 260.07L325.667 358.531M259.538 260.07L160.019 326.909M193.409 161.608L93.8898 228.448L160.019 326.909M325.667 358.531L391.795 456.993M325.667 358.531L226.147 425.371M391.795 456.993L457.924 555.454M391.795 456.993L292.276 523.832M457.924 555.454L524.053 653.916M457.924 555.454L358.405 622.294M524.053 653.916L590.182 752.377M524.053 653.916L424.534 720.755M590.182 752.377L656.311 850.839M590.182 752.377L490.663 819.217M656.311 850.839L556.791 917.678L490.663 819.217M160.019 326.909L226.147 425.371M226.147 425.371L292.276 523.832M292.276 523.832L358.405 622.294M358.405 622.294L424.534 720.755M424.534 720.755L490.663 819.217" stroke="url(#paint0_linear_17685_779)" stroke-opacity="0.7"/>
</g>
<defs>
<linearGradient id="paint0_linear_17685_779" x1="290.333" y1="498.168" x2="872.203" y2="71.4775" gradientUnits="userSpaceOnUse">
<stop offset="0.377045" stop-color="#030712"/>
<stop offset="1" stop-color="#1E2939"/>
</linearGradient>
<clipPath id="clip0_17685_779">
<rect width="1512" height="775.077" fill="white" transform="translate(-576.499 -18)"/>
</clipPath>
</defs>
</svg>
