<svg width="921" height="477" viewBox="0 0 921 477" fill="none" xmlns="http://www.w3.org/2000/svg">
<g clip-path="url(#clip0_17697_1390)">
<path d="M872.973 -75.6755L832.692 -136.271L772.072 -95.1366M872.973 -75.6755L812.353 -34.5412M872.973 -75.6755L913.254 -15.0801M812.353 -34.5412L772.072 -95.1366M812.353 -34.5412L852.634 26.0543M812.353 -34.5412L751.733 6.59323M772.072 -95.1366L711.452 -54.0022M913.254 -15.0801L852.634 26.0543M913.254 -15.0801L953.535 45.5154M852.634 26.0543L892.915 86.6498M852.634 26.0543L792.014 67.1887M953.535 45.5154L892.915 86.6498M953.535 45.5154L993.815 106.111M892.915 86.6498L933.196 147.245M892.915 86.6498L832.295 127.784M993.815 106.111L933.196 147.245M993.815 106.111L1034.1 166.706M933.196 147.245L973.476 207.841M933.196 147.245L872.576 188.38M1034.1 166.706L973.476 207.841M1034.1 166.706L1074.38 227.302M973.476 207.841L1013.76 268.436M973.476 207.841L912.857 248.975M1074.38 227.302L1013.76 268.436M1074.38 227.302L1114.66 287.897L1054.04 329.032M1013.76 268.436L1054.04 329.032M1013.76 268.436L953.137 309.571M1054.04 329.032L993.418 370.166M751.733 6.59323L711.452 -54.0022M751.733 6.59323L792.014 67.1887M751.733 6.59323L691.113 47.7276M711.452 -54.0022L650.832 -12.8679M792.014 67.1887L832.295 127.784M792.014 67.1887L731.394 108.323M832.295 127.784L872.576 188.38M832.295 127.784L771.675 168.919M872.576 188.38L912.857 248.975M872.576 188.38L811.956 229.514M912.857 248.975L953.137 309.571M912.857 248.975L852.237 290.109M953.137 309.571L993.418 370.166M953.137 309.571L892.517 350.705M993.418 370.166L932.798 411.3M691.113 47.7276L650.832 -12.8679M691.113 47.7276L731.394 108.323M691.113 47.7276L630.493 88.862M650.832 -12.8679L590.212 28.2665M731.394 108.323L771.675 168.919M731.394 108.323L670.774 149.457M771.675 168.919L811.956 229.514M771.675 168.919L711.055 210.053M811.956 229.514L852.237 290.109M811.956 229.514L751.336 270.648M852.237 290.109L892.517 350.705M852.237 290.109L791.617 331.244M892.517 350.705L932.798 411.3M892.517 350.705L831.898 391.839M932.798 411.3L872.178 452.435M630.493 88.862L590.212 28.2665M630.493 88.862L670.774 149.457M630.493 88.862L569.873 129.996M590.212 28.2665L529.592 69.4009M670.774 149.457L711.055 210.053M670.774 149.457L610.154 190.592M711.055 210.053L751.336 270.648M711.055 210.053L650.435 251.187M751.336 270.648L791.617 331.244M751.336 270.648L690.716 311.783M791.617 331.244L831.898 391.839M791.617 331.244L730.997 372.378M831.898 391.839L872.178 452.435M831.898 391.839L771.278 432.974M872.178 452.435L811.559 493.569M569.873 129.996L529.592 69.4009M569.873 129.996L610.154 190.592M569.873 129.996L509.253 171.131M529.592 69.4009L468.972 110.535M610.154 190.592L650.435 251.187M610.154 190.592L549.534 231.726M650.435 251.187L690.716 311.783M650.435 251.187L589.815 292.322M690.716 311.783L730.997 372.378M690.716 311.783L630.096 352.917M730.997 372.378L771.278 432.974M730.997 372.378L670.377 413.513M771.278 432.974L811.559 493.569M771.278 432.974L710.658 474.108M811.559 493.569L750.939 534.704M509.253 171.131L468.972 110.535M509.253 171.131L549.534 231.726M509.253 171.131L448.633 212.265M468.972 110.535L408.352 151.67L448.633 212.265M549.534 231.726L589.815 292.322M549.534 231.726L488.914 272.861M589.815 292.322L630.096 352.917M589.815 292.322L529.195 333.456M630.096 352.917L670.377 413.513M630.096 352.917L569.476 394.052M670.377 413.513L710.658 474.108M670.377 413.513L609.757 454.647M710.658 474.108L750.939 534.704M710.658 474.108L650.038 515.242M750.939 534.704L690.319 575.838L650.038 515.242M448.633 212.265L488.914 272.861M488.914 272.861L529.195 333.456M529.195 333.456L569.476 394.052M569.476 394.052L609.757 454.647M609.757 454.647L650.038 515.242" stroke="#F3F4F6"/>
<path d="M872.973 -75.6755L832.692 -136.271L772.072 -95.1366M872.973 -75.6755L812.353 -34.5412M872.973 -75.6755L913.254 -15.0801M812.353 -34.5412L772.072 -95.1366M812.353 -34.5412L852.634 26.0543M812.353 -34.5412L751.733 6.59323M772.072 -95.1366L711.452 -54.0022M913.254 -15.0801L852.634 26.0543M913.254 -15.0801L953.535 45.5154M852.634 26.0543L892.915 86.6498M852.634 26.0543L792.014 67.1887M953.535 45.5154L892.915 86.6498M953.535 45.5154L993.815 106.111M892.915 86.6498L933.196 147.245M892.915 86.6498L832.295 127.784M993.815 106.111L933.196 147.245M993.815 106.111L1034.1 166.706M933.196 147.245L973.476 207.841M933.196 147.245L872.576 188.38M1034.1 166.706L973.476 207.841M1034.1 166.706L1074.38 227.302M973.476 207.841L1013.76 268.436M973.476 207.841L912.857 248.975M1074.38 227.302L1013.76 268.436M1074.38 227.302L1114.66 287.897L1054.04 329.032M1013.76 268.436L1054.04 329.032M1013.76 268.436L953.137 309.571M1054.04 329.032L993.418 370.166M751.733 6.59323L711.452 -54.0022M751.733 6.59323L792.014 67.1887M751.733 6.59323L691.113 47.7276M711.452 -54.0022L650.832 -12.8679M792.014 67.1887L832.295 127.784M792.014 67.1887L731.394 108.323M832.295 127.784L872.576 188.38M832.295 127.784L771.675 168.919M872.576 188.38L912.857 248.975M872.576 188.38L811.956 229.514M912.857 248.975L953.137 309.571M912.857 248.975L852.237 290.109M953.137 309.571L993.418 370.166M953.137 309.571L892.517 350.705M993.418 370.166L932.798 411.3M691.113 47.7276L650.832 -12.8679M691.113 47.7276L731.394 108.323M691.113 47.7276L630.493 88.862M650.832 -12.8679L590.212 28.2665M731.394 108.323L771.675 168.919M731.394 108.323L670.774 149.457M771.675 168.919L811.956 229.514M771.675 168.919L711.055 210.053M811.956 229.514L852.237 290.109M811.956 229.514L751.336 270.648M852.237 290.109L892.517 350.705M852.237 290.109L791.617 331.244M892.517 350.705L932.798 411.3M892.517 350.705L831.898 391.839M932.798 411.3L872.178 452.435M630.493 88.862L590.212 28.2665M630.493 88.862L670.774 149.457M630.493 88.862L569.873 129.996M590.212 28.2665L529.592 69.4009M670.774 149.457L711.055 210.053M670.774 149.457L610.154 190.592M711.055 210.053L751.336 270.648M711.055 210.053L650.435 251.187M751.336 270.648L791.617 331.244M751.336 270.648L690.716 311.783M791.617 331.244L831.898 391.839M791.617 331.244L730.997 372.378M831.898 391.839L872.178 452.435M831.898 391.839L771.278 432.974M872.178 452.435L811.559 493.569M569.873 129.996L529.592 69.4009M569.873 129.996L610.154 190.592M569.873 129.996L509.253 171.131M529.592 69.4009L468.972 110.535M610.154 190.592L650.435 251.187M610.154 190.592L549.534 231.726M650.435 251.187L690.716 311.783M650.435 251.187L589.815 292.322M690.716 311.783L730.997 372.378M690.716 311.783L630.096 352.917M730.997 372.378L771.278 432.974M730.997 372.378L670.377 413.513M771.278 432.974L811.559 493.569M771.278 432.974L710.658 474.108M811.559 493.569L750.939 534.704M509.253 171.131L468.972 110.535M509.253 171.131L549.534 231.726M509.253 171.131L448.633 212.265M468.972 110.535L408.352 151.67L448.633 212.265M549.534 231.726L589.815 292.322M549.534 231.726L488.914 272.861M589.815 292.322L630.096 352.917M589.815 292.322L529.195 333.456M630.096 352.917L670.377 413.513M630.096 352.917L569.476 394.052M670.377 413.513L710.658 474.108M670.377 413.513L609.757 454.647M710.658 474.108L750.939 534.704M710.658 474.108L650.038 515.242M750.939 534.704L690.319 575.838L650.038 515.242M448.633 212.265L488.914 272.861M488.914 272.861L529.195 333.456M529.195 333.456L569.476 394.052M569.476 394.052L609.757 454.647M609.757 454.647L650.038 515.242" stroke="url(#paint0_linear_17697_1390)" stroke-opacity="0.7"/>
</g>
<defs>
<linearGradient id="paint0_linear_17697_1390" x1="528.011" y1="317.662" x2="884.986" y2="58.5672" gradientUnits="userSpaceOnUse">
<stop offset="0.377045" stop-color="#F9FAFB"/>
<stop offset="1" stop-color="#F3F4F6"/>
</linearGradient>
<clipPath id="clip0_17697_1390">
<rect width="921" height="477" fill="white"/>
</clipPath>
</defs>
</svg>
