<svg width="921" height="472" viewBox="0 0 921 472" fill="none" xmlns="http://www.w3.org/2000/svg">
<g clip-path="url(#clip0_17717_1343)">
<path d="M872.929 -74.8748L832.655 -134.84L772.04 -94.1296M872.929 -74.8748L812.314 -34.1645M872.929 -74.8748L913.202 -14.9097M812.314 -34.1645L772.04 -94.1296M812.314 -34.1645L852.587 25.8006M812.314 -34.1645L751.699 6.54583M772.04 -94.1296L711.425 -53.4193M913.202 -14.9097L852.587 25.8006M913.202 -14.9097L953.476 45.0554M852.587 25.8006L892.861 85.7657M852.587 25.8006L791.972 66.5109M953.476 45.0554L892.861 85.7657M953.476 45.0554L993.75 105.021M892.861 85.7657L933.135 145.731M892.861 85.7657L832.246 126.476M993.75 105.021L933.135 145.731M993.75 105.021L1034.02 164.986M933.135 145.731L973.409 205.696M933.135 145.731L872.52 186.441M1034.02 164.986L973.409 205.696M1034.02 164.986L1074.3 224.951M973.409 205.696L1013.68 265.661M973.409 205.696L912.794 246.406M1074.3 224.951L1013.68 265.661M1074.3 224.951L1114.57 284.916L1053.96 325.626M1013.68 265.661L1053.96 325.626M1013.68 265.661L953.068 306.371M1053.96 325.626L993.342 366.336M751.699 6.54583L711.425 -53.4193M751.699 6.54583L791.972 66.5109M751.699 6.54583L691.084 47.2561M711.425 -53.4193L650.81 -12.709M791.972 66.5109L832.246 126.476M791.972 66.5109L731.357 107.221M832.246 126.476L872.52 186.441M832.246 126.476L771.631 167.186M872.52 186.441L912.794 246.406M872.52 186.441L811.905 227.151M912.794 246.406L953.068 306.371M912.794 246.406L852.179 287.116M953.068 306.371L993.342 366.336M953.068 306.371L892.453 347.082M993.342 366.336L932.727 407.047M691.084 47.2561L650.81 -12.709M691.084 47.2561L731.357 107.221M691.084 47.2561L630.469 87.9664M650.81 -12.709L590.195 28.0013M731.357 107.221L771.631 167.186M731.357 107.221L670.743 147.932M771.631 167.186L811.905 227.151M771.631 167.186L711.016 207.897M811.905 227.151L852.179 287.116M811.905 227.151L751.29 267.862M852.179 287.116L892.453 347.082M852.179 287.116L791.564 327.827M892.453 347.082L932.727 407.047M892.453 347.082L831.838 387.792M932.727 407.047L872.112 447.757M630.469 87.9664L590.195 28.0013M630.469 87.9664L670.743 147.932M630.469 87.9664L569.854 128.677M590.195 28.0013L529.58 68.7116M670.743 147.932L711.016 207.897M670.743 147.932L610.128 188.642M711.016 207.897L751.29 267.862M711.016 207.897L650.401 248.607M751.29 267.862L791.564 327.827M751.29 267.862L690.675 308.572M791.564 327.827L831.838 387.792M791.564 327.827L730.949 368.537M831.838 387.792L872.112 447.757M831.838 387.792L771.223 428.502M872.112 447.757L811.497 488.467M569.854 128.677L529.58 68.7116M569.854 128.677L610.128 188.642M569.854 128.677L509.239 169.387M529.58 68.7116L468.965 109.422M610.128 188.642L650.401 248.607M610.128 188.642L549.513 229.352M650.401 248.607L690.675 308.572M650.401 248.607L589.786 289.317M690.675 308.572L730.949 368.537M690.675 308.572L630.06 349.282M730.949 368.537L771.223 428.502M730.949 368.537L670.334 409.247M771.223 428.502L811.497 488.467M771.223 428.502L710.608 469.212M811.497 488.467L750.882 529.178M509.239 169.387L468.965 109.422M509.239 169.387L549.513 229.352M509.239 169.387L448.624 210.097M468.965 109.422L408.35 150.132L448.624 210.097M549.513 229.352L589.786 289.317M549.513 229.352L488.898 270.062M589.786 289.317L630.06 349.282M589.786 289.317L529.171 330.027M630.06 349.282L670.334 409.247M630.06 349.282L569.445 389.993M670.334 409.247L710.608 469.212M670.334 409.247L609.719 449.958M710.608 469.212L750.882 529.178M710.608 469.212L649.993 509.923M750.882 529.178L690.267 569.888L649.993 509.923M448.624 210.097L488.898 270.062M488.898 270.062L529.171 330.027M529.171 330.027L569.445 389.993M569.445 389.993L609.719 449.958M609.719 449.958L649.993 509.923" stroke="#1E2939"/>
<path d="M872.929 -74.8748L832.655 -134.84L772.04 -94.1296M872.929 -74.8748L812.314 -34.1645M872.929 -74.8748L913.202 -14.9097M812.314 -34.1645L772.04 -94.1296M812.314 -34.1645L852.587 25.8006M812.314 -34.1645L751.699 6.54583M772.04 -94.1296L711.425 -53.4193M913.202 -14.9097L852.587 25.8006M913.202 -14.9097L953.476 45.0554M852.587 25.8006L892.861 85.7657M852.587 25.8006L791.972 66.5109M953.476 45.0554L892.861 85.7657M953.476 45.0554L993.75 105.021M892.861 85.7657L933.135 145.731M892.861 85.7657L832.246 126.476M993.75 105.021L933.135 145.731M993.75 105.021L1034.02 164.986M933.135 145.731L973.409 205.696M933.135 145.731L872.52 186.441M1034.02 164.986L973.409 205.696M1034.02 164.986L1074.3 224.951M973.409 205.696L1013.68 265.661M973.409 205.696L912.794 246.406M1074.3 224.951L1013.68 265.661M1074.3 224.951L1114.57 284.916L1053.96 325.626M1013.68 265.661L1053.96 325.626M1013.68 265.661L953.068 306.371M1053.96 325.626L993.342 366.336M751.699 6.54583L711.425 -53.4193M751.699 6.54583L791.972 66.5109M751.699 6.54583L691.084 47.2561M711.425 -53.4193L650.81 -12.709M791.972 66.5109L832.246 126.476M791.972 66.5109L731.357 107.221M832.246 126.476L872.52 186.441M832.246 126.476L771.631 167.186M872.52 186.441L912.794 246.406M872.52 186.441L811.905 227.151M912.794 246.406L953.068 306.371M912.794 246.406L852.179 287.116M953.068 306.371L993.342 366.336M953.068 306.371L892.453 347.082M993.342 366.336L932.727 407.047M691.084 47.2561L650.81 -12.709M691.084 47.2561L731.357 107.221M691.084 47.2561L630.469 87.9664M650.81 -12.709L590.195 28.0013M731.357 107.221L771.631 167.186M731.357 107.221L670.743 147.932M771.631 167.186L811.905 227.151M771.631 167.186L711.016 207.897M811.905 227.151L852.179 287.116M811.905 227.151L751.29 267.862M852.179 287.116L892.453 347.082M852.179 287.116L791.564 327.827M892.453 347.082L932.727 407.047M892.453 347.082L831.838 387.792M932.727 407.047L872.112 447.757M630.469 87.9664L590.195 28.0013M630.469 87.9664L670.743 147.932M630.469 87.9664L569.854 128.677M590.195 28.0013L529.58 68.7116M670.743 147.932L711.016 207.897M670.743 147.932L610.128 188.642M711.016 207.897L751.29 267.862M711.016 207.897L650.401 248.607M751.29 267.862L791.564 327.827M751.29 267.862L690.675 308.572M791.564 327.827L831.838 387.792M791.564 327.827L730.949 368.537M831.838 387.792L872.112 447.757M831.838 387.792L771.223 428.502M872.112 447.757L811.497 488.467M569.854 128.677L529.58 68.7116M569.854 128.677L610.128 188.642M569.854 128.677L509.239 169.387M529.58 68.7116L468.965 109.422M610.128 188.642L650.401 248.607M610.128 188.642L549.513 229.352M650.401 248.607L690.675 308.572M650.401 248.607L589.786 289.317M690.675 308.572L730.949 368.537M690.675 308.572L630.06 349.282M730.949 368.537L771.223 428.502M730.949 368.537L670.334 409.247M771.223 428.502L811.497 488.467M771.223 428.502L710.608 469.212M811.497 488.467L750.882 529.178M509.239 169.387L468.965 109.422M509.239 169.387L549.513 229.352M509.239 169.387L448.624 210.097M468.965 109.422L408.35 150.132L448.624 210.097M549.513 229.352L589.786 289.317M549.513 229.352L488.898 270.062M589.786 289.317L630.06 349.282M589.786 289.317L529.171 330.027M630.06 349.282L670.334 409.247M630.06 349.282L569.445 389.993M670.334 409.247L710.608 469.212M670.334 409.247L609.719 449.958M710.608 469.212L750.882 529.178M710.608 469.212L649.993 509.923M750.882 529.178L690.267 569.888L649.993 509.923M448.624 210.097L488.898 270.062M488.898 270.062L529.171 330.027M529.171 330.027L569.445 389.993M569.445 389.993L609.719 449.958M609.719 449.958L649.993 509.923" stroke="url(#paint0_linear_17717_1343)" stroke-opacity="0.7"/>
</g>
<defs>
<linearGradient id="paint0_linear_17717_1343" x1="527.988" y1="314.397" x2="882.392" y2="54.5079" gradientUnits="userSpaceOnUse">
<stop offset="0.377045" stop-color="#030712"/>
<stop offset="1" stop-color="#101828"/>
</linearGradient>
<clipPath id="clip0_17717_1343">
<rect width="921" height="472" fill="white"/>
</clipPath>
</defs>
</svg>
