<svg width="1281" height="440" viewBox="0 0 1281 440" fill="none" xmlns="http://www.w3.org/2000/svg">
<path d="M1462.97 537.966L1624.44 431L1513.35 272.286M1462.97 537.966L1351.88 379.252M1462.97 537.966L1301.5 644.932M1351.88 379.252L1513.35 272.286M1351.88 379.252L1190.42 486.218M1351.88 379.252L1240.8 220.538M1513.35 272.286L1402.26 113.572M1301.5 644.932L1190.42 486.218M1301.5 644.932L1140.04 751.898M1190.42 486.218L1028.95 593.184M1190.42 486.218L1079.33 327.504M1140.04 751.898L1028.95 593.184M1140.04 751.898L978.571 858.864M1028.95 593.184L867.484 700.15M1028.95 593.184L917.864 434.47M978.571 858.864L867.484 700.15M978.571 858.864L817.105 965.83M867.484 700.15L706.018 807.116M867.484 700.15L756.397 541.436M817.105 965.83L706.018 807.116M817.105 965.83L655.639 1072.8M706.018 807.116L544.552 914.082M706.018 807.116L594.931 648.402M655.639 1072.8L544.552 914.082M655.639 1072.8L494.172 1179.76L383.086 1021.05M544.552 914.082L383.086 1021.05M544.552 914.082L433.465 755.368M383.086 1021.05L271.999 862.334M1240.8 220.538L1402.26 113.572M1240.8 220.538L1079.33 327.504M1240.8 220.538L1129.71 61.8234M1402.26 113.572L1291.18 -45.1425M1079.33 327.504L917.864 434.47M1079.33 327.504L968.243 168.789M917.864 434.47L756.397 541.436M917.864 434.47L806.777 275.755M756.397 541.436L594.931 648.402M756.397 541.436L645.31 382.721M594.931 648.402L433.465 755.368M594.931 648.402L483.844 489.687M433.465 755.368L271.999 862.334M433.465 755.368L322.378 596.653M271.999 862.334L160.912 703.619M1129.71 61.8234L1291.18 -45.1425M1129.71 61.8234L968.243 168.789M1129.71 61.8234L1018.62 -96.8909M1291.18 -45.1425L1180.09 -203.857M968.243 168.789L806.777 275.755M968.243 168.789L857.156 10.0751M806.777 275.755L645.31 382.721M806.777 275.755L695.69 117.041M645.31 382.721L483.844 489.687M645.31 382.721L534.224 224.007M483.844 489.687L322.378 596.653M483.844 489.687L372.757 330.973M322.378 596.653L160.912 703.619M322.378 596.653L211.291 437.939M160.912 703.619L49.8249 544.905M1018.62 -96.8909L1180.09 -203.857M1018.62 -96.8909L857.156 10.0751M1018.62 -96.8909L907.535 -255.605M1180.09 -203.857L1069 -362.571M857.156 10.0751L695.69 117.041M857.156 10.0751L746.069 -148.639M695.69 117.041L534.224 224.007M695.69 117.041L584.603 -41.6732M534.224 224.007L372.757 330.973M534.224 224.007L423.137 65.2927M372.757 330.973L211.291 437.939M372.757 330.973L261.67 172.259M211.291 437.939L49.8249 544.905M211.291 437.939L100.204 279.225M49.8249 544.905L-61.262 386.191M907.535 -255.605L1069 -362.571M907.535 -255.605L746.069 -148.639M907.535 -255.605L796.449 -414.32M1069 -362.571L957.915 -521.286M746.069 -148.639L584.603 -41.6732M746.069 -148.639L634.982 -307.354M584.603 -41.6732L423.137 65.2927M584.603 -41.6732L473.516 -200.388M423.137 65.2927L261.67 172.259M423.137 65.2927L312.05 -93.4216M261.67 172.259L100.204 279.225M261.67 172.259L150.584 13.5444M100.204 279.225L-61.262 386.191M100.204 279.225L-10.8826 120.51M-61.262 386.191L-172.349 227.476M796.449 -414.32L957.915 -521.286M796.449 -414.32L634.982 -307.354M796.449 -414.32L685.362 -573.034M957.915 -521.286L846.828 -680L685.362 -573.034M634.982 -307.354L473.516 -200.388M634.982 -307.354L523.895 -466.068M473.516 -200.388L312.05 -93.4216M473.516 -200.388L362.429 -359.102M312.05 -93.4216L150.584 13.5444M312.05 -93.4216L200.963 -252.136M150.584 13.5444L-10.8826 120.51M150.584 13.5444L39.4967 -145.17M-10.8826 120.51L-172.349 227.476M-10.8826 120.51L-121.969 -38.2039M-172.349 227.476L-283.436 68.7621L-121.969 -38.2039M685.362 -573.034L523.895 -466.068M523.895 -466.068L362.429 -359.102M362.429 -359.102L200.963 -252.136M200.963 -252.136L39.4967 -145.17M39.4967 -145.17L-121.969 -38.2039" stroke="url(#paint0_linear_17685_708)"/>
<defs>
<linearGradient id="paint0_linear_17685_708" x1="821.677" y1="-680.12" x2="767.524" y2="810.994" gradientUnits="userSpaceOnUse">
<stop offset="0.475962" stop-color="white"/>
<stop offset="1" stop-color="#E4E5E7"/>
</linearGradient>
</defs>
</svg>
