<svg width="1281" height="440" viewBox="0 0 1281 440" fill="none" xmlns="http://www.w3.org/2000/svg">
<path d="M1462.97 487.966L1624.44 381L1513.35 222.286M1462.97 487.966L1351.88 329.252M1462.97 487.966L1301.5 594.932M1351.88 329.252L1513.35 222.286M1351.88 329.252L1190.42 436.218M1351.88 329.252L1240.8 170.538M1513.35 222.286L1402.26 63.5718M1301.5 594.932L1190.42 436.218M1301.5 594.932L1140.04 701.898M1190.42 436.218L1028.95 543.184M1190.42 436.218L1079.33 277.504M1140.04 701.898L1028.95 543.184M1140.04 701.898L978.571 808.864M1028.95 543.184L867.484 650.15M1028.95 543.184L917.864 384.47M978.571 808.864L867.484 650.15M978.571 808.864L817.105 915.83M867.484 650.15L706.018 757.116M867.484 650.15L756.397 491.436M817.105 915.83L706.018 757.116M817.105 915.83L655.639 1022.8M706.018 757.116L544.552 864.082M706.018 757.116L594.931 598.402M655.639 1022.8L544.552 864.082M655.639 1022.8L494.172 1129.76L383.086 971.048M544.552 864.082L383.086 971.048M544.552 864.082L433.465 705.368M383.086 971.048L271.999 812.334M1240.8 170.538L1402.26 63.5718M1240.8 170.538L1079.33 277.504M1240.8 170.538L1129.71 11.8234M1402.26 63.5718L1291.18 -95.1425M1079.33 277.504L917.864 384.47M1079.33 277.504L968.243 118.789M917.864 384.47L756.397 491.436M917.864 384.47L806.777 225.755M756.397 491.436L594.931 598.402M756.397 491.436L645.31 332.721M594.931 598.402L433.465 705.368M594.931 598.402L483.844 439.687M433.465 705.368L271.999 812.334M433.465 705.368L322.378 546.653M271.999 812.334L160.912 653.619M1129.71 11.8234L1291.18 -95.1425M1129.71 11.8234L968.243 118.789M1129.71 11.8234L1018.62 -146.891M1291.18 -95.1425L1180.09 -253.857M968.243 118.789L806.777 225.755M968.243 118.789L857.156 -39.9249M806.777 225.755L645.31 332.721M806.777 225.755L695.69 67.0411M645.31 332.721L483.844 439.687M645.31 332.721L534.224 174.007M483.844 439.687L322.378 546.653M483.844 439.687L372.757 280.973M322.378 546.653L160.912 653.619M322.378 546.653L211.291 387.939M160.912 653.619L49.8249 494.905M1018.62 -146.891L1180.09 -253.857M1018.62 -146.891L857.156 -39.9249M1018.62 -146.891L907.535 -305.605M1180.09 -253.857L1069 -412.571M857.156 -39.9249L695.69 67.0411M857.156 -39.9249L746.069 -198.639M695.69 67.0411L534.224 174.007M695.69 67.0411L584.603 -91.6732M534.224 174.007L372.757 280.973M534.224 174.007L423.137 15.2927M372.757 280.973L211.291 387.939M372.757 280.973L261.67 122.259M211.291 387.939L49.8249 494.905M211.291 387.939L100.204 229.225M49.8249 494.905L-61.262 336.191M907.535 -305.605L1069 -412.571M907.535 -305.605L746.069 -198.639M907.535 -305.605L796.449 -464.32M1069 -412.571L957.915 -571.286M746.069 -198.639L584.603 -91.6732M746.069 -198.639L634.982 -357.354M584.603 -91.6732L423.137 15.2927M584.603 -91.6732L473.516 -250.388M423.137 15.2927L261.67 122.259M423.137 15.2927L312.05 -143.422M261.67 122.259L100.204 229.225M261.67 122.259L150.584 -36.4556M100.204 229.225L-61.262 336.191M100.204 229.225L-10.8826 70.5104M-61.262 336.191L-172.349 177.476M796.449 -464.32L957.915 -571.286M796.449 -464.32L634.982 -357.354M796.449 -464.32L685.362 -623.034M957.915 -571.286L846.828 -730L685.362 -623.034M634.982 -357.354L473.516 -250.388M634.982 -357.354L523.895 -516.068M473.516 -250.388L312.05 -143.422M473.516 -250.388L362.429 -409.102M312.05 -143.422L150.584 -36.4556M312.05 -143.422L200.963 -302.136M150.584 -36.4556L-10.8826 70.5104M150.584 -36.4556L39.4967 -195.17M-10.8826 70.5104L-172.349 177.476M-10.8826 70.5104L-121.969 -88.2039M-172.349 177.476L-283.436 18.7621L-121.969 -88.2039M685.362 -623.034L523.895 -516.068M523.895 -516.068L362.429 -409.102M362.429 -409.102L200.963 -302.136M200.963 -302.136L39.4967 -195.17M39.4967 -195.17L-121.969 -88.2039" stroke="url(#paint0_linear_17685_882)"/>
<defs>
<linearGradient id="paint0_linear_17685_882" x1="821.677" y1="-730.12" x2="767.524" y2="760.994" gradientUnits="userSpaceOnUse">
<stop offset="0.475962" stop-color="#030712"/>
<stop offset="1" stop-color="#141D2C"/>
</linearGradient>
</defs>
</svg>
