<svg fill="none" height="1862" viewBox="0 0 1910 1862" width="1910" xmlns="http://www.w3.org/2000/svg" xmlns:xlink="http://www.w3.org/1999/xlink"><linearGradient id="a" gradientUnits="userSpaceOnUse" x1="1105.82" x2="1051.66" y1=".564817" y2="1491.68"><stop offset=".475962" stop-color="#020618"/><stop offset="1" stop-color="#27272a"/></linearGradient><path d="m1747.11 1218.65 161.47-106.96-111.09-158.719m-50.38 265.679-111.09-158.71m111.09 158.71-161.47 106.97m50.38-265.68 161.47-106.969m-161.47 106.969-161.46 106.96m161.46-106.96-111.08-158.717m272.55 51.748-111.09-158.714m-100.76 531.363-111.08-158.72m111.08 158.72-161.46 106.96m50.38-265.68-161.47 106.97m161.47-106.97-111.09-158.71m60.71 424.39-111.09-158.71m111.09 158.71-161.47 106.97m50.38-265.68-161.47 106.97m161.47-106.97-111.09-158.72m60.71 424.4-111.09-158.71m111.09 158.71-161.47 106.97m50.38-265.68-161.463 106.96m161.463-106.96-111.08-158.72m60.7 424.4-111.083-158.72m111.083 158.72-161.462 106.96m50.379-265.68-161.466 106.97m161.466-106.97-111.087-158.71m60.708 424.39-111.087-158.71m111.087 158.71-161.466 106.97-111.087-158.72m161.466-106.96-161.466 106.96m161.466-106.96-111.087-158.72m-50.379 265.68-111.087-158.71m968.802-641.797 161.46-106.966m-161.46 106.966-161.47 106.967m161.47-106.967-111.09-158.714m272.55 51.748-111.09-158.714m-211.84 372.647-161.47 106.96m161.47-106.96-111.09-158.715m-50.38 265.675-161.46 106.97m161.46-106.97-111.08-158.709m-50.38 265.679-161.47 106.97m161.47-106.97-111.09-158.71m-50.38 265.68-161.466 106.96m161.466-106.96-111.087-158.72m-50.379 265.68-161.466 106.97m161.466-106.97-111.087-158.71m-50.379 265.68-111.087-158.72m968.799-641.791 161.46-106.966m-161.46 106.966-161.47 106.966m161.47-106.966-111.09-158.715m272.55 51.749-111.08-158.715m-211.85 372.647-161.46 106.966m161.46-106.966-111.08-158.715m-50.38 265.681-161.47 106.969m161.47-106.969-111.091-158.715m-50.379 265.684-161.467 106.96m161.467-106.96-111.087-158.718m-50.38 265.678-161.466 106.97m161.466-106.97-111.086-158.71m-50.38 265.68-161.466 106.96m161.466-106.96-111.087-158.72m-50.379 265.68-111.087-158.71m968.796-641.796 161.47-106.966m-161.47 106.966-161.46 106.966m161.46-106.966-111.09-158.714m272.56 51.748-111.09-158.714m-211.84 372.646-161.471 106.966m161.471-106.966-111.09-158.714m-50.381 265.68-161.466 106.966m161.466-106.966-111.087-158.714m-50.379 265.68-161.466 106.968m161.466-106.968-111.087-158.714m-50.379 265.682-161.467 106.96m161.467-106.96-111.087-158.716m-50.38 265.676-161.466 106.97m161.466-106.97-111.087-158.71m-50.379 265.68-111.087-158.71m968.793-641.8 161.47-106.966m-161.47 106.966-161.46 106.966m161.46-106.966-111.08-158.715m272.55 51.749-111.09-158.715m-211.84 372.647-161.468 106.966m161.468-106.966-111.089-158.715m-50.379 265.681-161.466 106.966m161.466-106.966-111.087-158.715m-50.379 265.681-161.466 106.966m161.466-106.966-111.087-158.715m-50.379 265.681-161.467 106.966m161.467-106.966-111.087-158.715m-50.38 265.681-161.466 106.97m161.466-106.97-111.086-158.715m-50.38 265.685-111.087-158.719m968.8-641.796 161.46-106.966m-161.46 106.966-161.469 106.966m161.469-106.966-111.089-158.714m272.549 51.748-111.08-158.713873-161.469 106.965873m-50.38 265.68-161.466 106.966m161.466-106.966-111.086-158.714m-50.38 265.68-161.466 106.966m161.466-106.966-111.087-158.714m-50.379 265.68-161.466 106.966m161.466-106.966-111.087-158.714m-50.379 265.68-161.466 106.966m161.466-106.966-111.087-158.714m-50.379 265.68-161.467 106.966m161.467-106.966-111.087-158.714m-50.38 265.68-111.086555-158.714 161.466555-106.966m807.331-534.83-161.466 106.966m0 0-161.467 106.966m0 0-161.466 106.966m0 0-161.466 106.966m0 0-161.466 106.966" stroke="url(#a)"/></svg>